<svg version="1.2" xmlns="http://www.w3.org/2000/svg" viewBox="0 0 900 550" width="900" height="550">
	<title>No550_logo</title>
	<style>
		.s0 { fill: #000000 } 
		.s1 { fill: #cd3838 } 
	</style>
	<g id="Layer 1">
		<g id="&lt;Group&gt;">
			<g id="&lt;Group&gt;">
				<path id="&lt;Compound Path&gt;" class="s0" d="m9.8 196.3h21.2l80.4 96.3v-96.3h21.5v159.9l-101.5-124.2v121.5h-21.6z"/>
				<path id="&lt;Compound Path&gt;" fill-rule="evenodd" class="s0" d="m160.3 275.1c0-45.1 34-81.5 80.7-81.5 46.7 0 80.6 36.4 80.6 81.5 0 44.9-33.9 81.3-80.6 81.3-46.7 0-80.7-36.4-80.7-81.3zm24.1 0c0 33.9 24 58.9 56.6 58.9 32.6 0 56.6-25 56.6-58.9 0-34.1-24-59.1-56.6-59.1-32.6 0-56.6 25-56.6 59.1z"/>
			</g>
			<g id="&lt;Group&gt;">
				<path id="&lt;Compound Path&gt;" fill-rule="evenodd" class="s1" d="m834.2 275c0 114.7-92.9 207.6-207.6 207.6-114.6 0-207.6-92.9-207.6-207.6 0-114.7 93-207.6 207.6-207.6 114.7 0 207.6 92.9 207.6 207.6zm-284.3 18.4c0-12.5-4.9-23.8-13.1-32-8.3-8.1-19.9-13.1-33.2-13.1-2.5 0.1-4.5 0.2-6.1 0.5l1.9-16.7h44.2v-19.6h-61.2l-7.5 68.3 4.6-3.9c2.6-2.2 5.8-4.3 9.5-5.9 3.6-1.5 7.7-2.4 12.4-2.4 8 0 14.4 2.9 18.9 7.4 4.4 4.6 7 10.8 7 17.4 0 7.1-2.6 13.5-7 18.2-4.4 4.6-10.6 7.5-18.2 7.6-4.3 0-8.1-1-11.6-2.7-3.5-1.6-6.6-4-9.4-6.8l-1.8-1.8-12.7 15.6 1.6 1.5c4 3.9 8.7 7.5 14.4 10.2 5.6 2.7 12.1 4.3 19.5 4.3 14.1 0.1 26.1-5.2 34.5-13.6 8.5-8.4 13.3-19.9 13.3-32.5zm98 0c0-12.5-4.9-23.8-13.1-32-8.3-8.1-19.9-13.1-33.2-13.1-2.4 0.1-4.5 0.2-6.1 0.5l1.9-16.7h44.2v-19.6h-61.1l-7.6 68.3 4.6-3.9c2.6-2.2 5.8-4.3 9.5-5.9 3.6-1.5 7.8-2.4 12.4-2.4 8 0 14.4 2.9 18.9 7.4 4.5 4.6 7 10.8 7 17.4 0 7.1-2.6 13.5-7 18.2-4.4 4.6-10.6 7.5-18.2 7.6-4.3 0-8.1-1-11.6-2.7-3.4-1.6-6.6-4-9.3-6.8l-1.9-1.8-12.7 15.6 1.6 1.5c4 3.9 8.8 7.5 14.4 10.2 5.6 2.7 12.1 4.3 19.5 4.3 14.1 0.1 26.1-5.2 34.6-13.6 8.4-8.4 13.2-19.9 13.2-32.5zm128.3 27.2c11.4-11.6 18.1-27.8 18.1-45.5 0-17.8-6.7-34-18.1-45.7-11.3-11.7-27.4-18.9-45.8-18.9-18.5 0-34.5 7.2-45.9 18.9-11.4 11.7-18.1 27.9-18.1 45.7 0 17.7 6.7 33.9 18.1 45.5 11.4 11.7 27.4 19 45.9 18.9 18.4 0.1 34.5-7.2 45.8-18.9z"/>
				<path id="&lt;Path&gt;" class="s1" d="m730.4 231.5c-12.1 0-22.5 4.6-29.9 12.3-7.3 7.7-11.8 18.6-11.8 31.3 0 12.6 4.4 23.4 11.8 31.1 7.4 7.7 17.8 12.3 29.9 12.3 12 0 22.4-4.6 29.8-12.3 7.4-7.7 11.8-18.5 11.8-31.1 0-12.7-4.4-23.6-11.8-31.3-7.4-7.7-17.8-12.3-29.8-12.3z"/>
			</g>
			<path id="&lt;Path&gt;" class="s0" d="m874.1 170.5l-4.7 1.9 4.7-1.9c-9.5-22.5-22-43.3-36.9-62.1q-4.9-6.2-10.1-12h0.1l-3.3-3.6q-7.3-7.8-15.1-15.1l-3.5-3.3-357.3 357.3c-6.6-7.6-12.7-15.6-18.4-23.9-25.6-37.9-40.5-83.5-40.5-132.8 0-32.8 6.6-64 18.6-92.5 18-42.6 48.2-78.9 86.1-104.5 37.9-25.6 83.6-40.5 132.8-40.5h0.3c32.7 0 63.8 6.6 92.2 18.6 19.1 8.1 36.9 18.6 53 31.1l3.5 2.7 22.1-22-4.4-3.5q-8-6.3-16.5-12.1c-42.9-28.9-94.6-45.9-150.2-45.9h-5v0.1c-35.2 0.7-68.8 8.1-99.5 21.1-48.2 20.4-89.2 54.4-118.2 97.2-28.9 42.9-45.8 94.6-45.8 150.2 0 37 7.5 72.4 21.1 104.5 12.2 28.8 29.2 55.1 50.1 77.7q7.3 7.8 15.1 15.1l3.6 3.3 357.2-357.2q4.8 5.4 9.2 11.1 4.8 6.2 9.2 12.7c25.6 37.9 40.6 83.5 40.6 132.8 0 32.8-6.7 64.1-18.7 92.5-18 42.6-48.2 78.9-86.1 104.5-37.9 25.6-83.5 40.5-132.8 40.6-32.8-0.1-64-6.7-92.5-18.7-19-8.1-36.8-18.6-53-31.1l-3.5-2.7-22 22 4.4 3.5q8 6.3 16.5 12.1c42.8 28.9 94.5 45.8 150 45.8h0.1 0.1c37 0.1 72.3-7.5 104.4-21.1 48.3-20.3 89.2-54.4 118.2-97.2 28.9-42.9 45.9-94.6 45.9-150.1v-0.1c0-37-7.5-72.4-21.1-104.5z"/>
			<path id="&lt;Path&gt;" class="s0" d="m869.5 172.4c-9.4-22-21.6-42.5-36.2-60.9q-6.2-7.9-13.1-15.3-7.1-7.7-14.8-14.8l-357.6 357.5c-8.1-8.8-15.6-18.3-22.3-28.3-26.2-38.7-41.4-85.3-41.4-135.6 0-33.5 6.7-65.4 19-94.4 18.4-43.5 49.2-80.6 87.9-106.7 38.7-26.2 85.3-41.4 135.6-41.4 33.5 0 65.4 6.7 94.4 19 19.5 8.3 37.7 19 54.2 31.8l15-15q-7.9-6.2-16.2-11.8c-42.1-28.5-92.8-45-147.4-45-36.3 0-71 7.3-102.6 20.7-47.3 20-87.5 53.4-115.9 95.4-28.4 42.1-45 92.9-45 147.4 0 36.4 7.3 71.1 20.7 102.6 11.9 28.3 28.7 54 49.2 76.2q7.1 7.7 14.8 14.8l357.6-357.5q6.8 7.4 12.9 15.3 5 6.3 9.4 13c26.2 38.7 41.5 85.3 41.5 135.6 0 33.5-6.8 65.4-19.1 94.4-18.4 43.5-49.2 80.6-87.9 106.7-38.7 26.2-85.3 41.4-135.6 41.4-33.5 0-65.4-6.7-94.4-19-19.5-8.2-37.7-19-54.2-31.8l-14.9 15q7.8 6.2 16.2 11.8c42 28.5 92.8 45.1 147.3 45 36.4 0.1 71.1-7.3 102.6-20.7 47.3-20 87.5-53.4 115.9-95.4 28.5-42.1 45.1-92.9 45.1-147.4 0-36.4-7.4-71-20.7-102.6z"/>
		</g>
	</g>
</svg>